<?xml version="1.0" encoding="iso-8859-1"?>
<!-- Uploaded to: SVG Repo, www.svgrepo.com, Generator: SVG Repo Mixer Tools -->
<svg version="1.1" id="Layer_1" xmlns="http://www.w3.org/2000/svg" xmlns:xlink="http://www.w3.org/1999/xlink" 
	 viewBox="0 0 510.844 510.844" xml:space="preserve">
<path style="fill:#25B6D2;" d="M161.744,372.75l5.6,5.584c14.208,14.176,37.44,14.16,51.616-0.048l281.264-281.76
	c14.176-14.208,14.16-37.44-0.048-51.616l-5.6-5.584c-14.208-14.176-37.44-14.16-51.616,0.048l-281.264,281.76
	C147.52,335.342,147.536,358.574,161.744,372.75z"/>
<g>
	
		<rect x="197.248" y="286.262" transform="matrix(-0.7071 -0.7071 0.7071 -0.7071 192.0547 684.0754)" style="fill:#E04F5F;" width="80.911" height="32"/>
	<path style="fill:#E04F5F;" d="M165.92,376.702c-11.872-11.872-46.368-27.872-59.12,3.12s-35.248,82.496-58.256,82.496
		S0,420.19,0,420.19s12.288,68.88,70.544,61.376S171.536,431.07,178.8,412.814S165.92,376.702,165.92,376.702z"/>
</g>
</svg>